<svg xmlns="http://www.w3.org/2000/svg" viewBox="0 0 512 512" width="512" height="512">
  <defs>
    <linearGradient id="bg" x1="0%" y1="0%" x2="100%" y2="100%">
      <stop offset="0%" style="stop-color:#7c3aed"/>
      <stop offset="100%" style="stop-color:#6d28d9"/>
    </linearGradient>
  </defs>

  <!-- Rounded square -->
  <rect width="512" height="512" rx="96" ry="96" fill="url(#bg)"/>

  <!-- G — clean geometric, thick strokes -->
  <path d="
    M 72 256
    C 72 168 124 108 192 108
    C 224 108 250 120 266 140
    L 234 176
    C 222 162 210 152 192 152
    C 152 152 124 194 124 256
    C 124 318 152 360 192 360
    C 210 360 222 352 230 340
    L 230 272
    L 188 272
    L 188 232
    L 276 232
    L 276 368
    C 258 392 228 404 192 404
    C 124 404 72 344 72 256
    Z
  " fill="white"/>

  <!-- N — bold, balanced -->
  <path d="
    M 296 112
    L 344 112
    L 420 340
    L 420 112
    L 464 112
    L 464 400
    L 416 400
    L 340 172
    L 340 400
    L 296 400
    Z
  " fill="white" opacity="0.92"/>
</svg>
