<svg xmlns="http://www.w3.org/2000/svg" viewBox="0 0 512 512" width="512" height="512">
  <defs>
    <linearGradient id="bg" x1="0%" y1="0%" x2="100%" y2="100%">
      <stop offset="0%" style="stop-color:#0a0e27"/>
      <stop offset="50%" style="stop-color:#1a1a2e"/>
      <stop offset="100%" style="stop-color:#0f3460"/>
    </linearGradient>
    <linearGradient id="accent" x1="0%" y1="0%" x2="100%" y2="100%">
      <stop offset="0%" style="stop-color:#8b5cf6"/>
      <stop offset="100%" style="stop-color:#7c3aed"/>
    </linearGradient>
  </defs>

  <!-- Rounded square dark navy background -->
  <rect width="512" height="512" rx="96" ry="96" fill="url(#bg)"/>

  <!-- Subtle purple accent bar at bottom -->
  <rect x="96" y="436" width="320" height="6" rx="3" fill="url(#accent)"/>

  <!-- G — clean geometric, thick strokes, pure white -->
  <path d="
    M 72 256
    C 72 168 124 108 192 108
    C 224 108 250 120 266 140
    L 234 176
    C 222 162 210 152 192 152
    C 152 152 124 194 124 256
    C 124 318 152 360 192 360
    C 210 360 222 352 230 340
    L 230 272
    L 188 272
    L 188 232
    L 276 232
    L 276 368
    C 258 392 228 404 192 404
    C 124 404 72 344 72 256
    Z
  " fill="#ffffff"/>

  <!-- N — bold, balanced, same pure white -->
  <path d="
    M 296 112
    L 344 112
    L 420 340
    L 420 112
    L 464 112
    L 464 400
    L 416 400
    L 340 172
    L 340 400
    L 296 400
    Z
  " fill="#ffffff"/>
</svg>
