<svg xmlns="http://www.w3.org/2000/svg" viewBox="0 0 64 64" width="64" height="64">
  <defs>
    <linearGradient id="bg" x1="0%" y1="0%" x2="100%" y2="100%">
      <stop offset="0%" style="stop-color:#7c3aed"/>
      <stop offset="50%" style="stop-color:#8b5cf6"/>
      <stop offset="100%" style="stop-color:#6d28d9"/>
    </linearGradient>
  </defs>

  <!-- Rounded square background -->
  <rect width="64" height="64" rx="14" ry="14" fill="url(#bg)"/>

  <!-- "G" letter path — bold geometric -->
  <path d="M10 32 C10 20.5 18.5 14 27 14 C32 14 35.5 16 37 18 L33 23 C32 21.5 30 20 27.5 20 C22 20 17.5 24.5 17.5 32 C17.5 39.5 22 44 27.5 44 C30 44 31.5 43 32.5 42 L32.5 35 L27 35 L27 29.5 L39 29.5 L39 45 C36.5 48 32 50 27 50 C18.5 50 10 43.5 10 32 Z" fill="white"/>

  <!-- "N" letter path — bold geometric -->
  <path d="M42 15 L48.5 15 L57 40 L57 15 L63 15 L63 49 L56.5 49 L48 24 L48 49 L42 49 Z" fill="rgba(255,255,255,0.9)"/>
</svg>
